<svg xmlns="http://www.w3.org/2000/svg" viewBox="0 0 64 64">

  <!-- Moon -->
  <path
    d="M20 10a10 10 0 1 0 10 14A12 12 0 1 1 20 10z"
    fill="#FBBF24"/>

  <!-- Star -->
  <polygon
    points="36,12 38,16 42,16 39,18 40,22 36,20 32,22 33,18 30,16 34,16"
    fill="#FBBF24"/>

  <!-- Hotel -->
  <rect x="18" y="22" width="28" height="18" rx="3" fill="#FFFFFF"/>
  <rect x="22" y="26" width="4" height="4" fill="#0F2A44"/>
  <rect x="30" y="26" width="4" height="4" fill="#0F2A44"/>
  <rect x="38" y="26" width="4" height="4" fill="#0F2A44"/>

  <!-- Roof -->
  <polygon points="16,22 32,14 48,22" fill="#FFFFFF"/>

  <!-- Location Pin -->
  <path
    d="M32 33
       c-7 0-12 5-12 11
       0 8 12 18 12 18
       s12-10 12-18
       c0-6-5-11-12-11z"
    fill="#65A30D"/>

  <circle cx="32" cy="46" r="4" fill="#FFFFFF"/>

</svg>
